<svg width="250" height="112" viewBox="0 0 250 112" fill="none" xmlns="http://www.w3.org/2000/svg">
<rect x="10" y="11" width="123" height="92" rx="15" fill="url(#paint0_linear_0_1)"/>
<rect x="139" y="11" width="54" height="92" rx="15" fill="url(#paint1_linear_0_1)"/>
<rect x="199" y="11" width="42" height="38" rx="15" fill="url(#paint2_linear_0_1)"/>
<rect x="199" y="57" width="42" height="46" rx="15" fill="url(#paint3_linear_0_1)"/>
<g style="mix-blend-mode:multiply">
<rect width="250" height="112" rx="10" fill="#2F4BAE" fill-opacity="0.5"/>
</g>
<rect x="23" y="22" width="32" height="27" rx="10" fill="#D9D9D9"/>
<rect x="23" y="22" width="41" height="34" rx="10" fill="url(#paint4_linear_0_1)"/>
<ellipse cx="102.5" cy="76.5" rx="22.5" ry="19.5" fill="url(#paint5_linear_0_1)"/>
<defs>
<linearGradient id="paint0_linear_0_1" x1="71.5" y1="11" x2="71.5" y2="103" gradientUnits="userSpaceOnUse">
<stop stop-color="#5272A2"/>
<stop offset="0.02" stop-color="#4F6E9C"/>
<stop offset="0.875" stop-color="#202C3E"/>
<stop offset="1" stop-color="#1E2A3C"/>
</linearGradient>
<linearGradient id="paint1_linear_0_1" x1="166" y1="11" x2="166" y2="103" gradientUnits="userSpaceOnUse">
<stop offset="0.455" stop-color="#424588"/>
<stop offset="1" stop-color="#101122"/>
</linearGradient>
<linearGradient id="paint2_linear_0_1" x1="220" y1="11" x2="220" y2="49" gradientUnits="userSpaceOnUse">
<stop stop-color="#141F48"/>
<stop offset="0.615" stop-color="#253A86"/>
<stop offset="0.72" stop-color="#253A86"/>
<stop offset="1" stop-color="#2F4BAE"/>
</linearGradient>
<linearGradient id="paint3_linear_0_1" x1="220" y1="57" x2="220" y2="103" gradientUnits="userSpaceOnUse">
<stop stop-color="#29245F"/>
<stop offset="1" stop-color="#554BC5"/>
</linearGradient>
<linearGradient id="paint4_linear_0_1" x1="43.5" y1="22" x2="43.5" y2="56" gradientUnits="userSpaceOnUse">
<stop stop-color="#1A2652"/>
<stop offset="1" stop-color="#3955B8"/>
</linearGradient>
<linearGradient id="paint5_linear_0_1" x1="102.5" y1="57" x2="102.5" y2="96" gradientUnits="userSpaceOnUse">
<stop stop-color="#3D5478"/>
<stop offset="1" stop-color="#709CDE"/>
</linearGradient>
</defs>
</svg>
